<?xml version="1.0" encoding="UTF-8" standalone="no"?>
<!-- Created with Inkscape (http://www.inkscape.org/) -->

<svg
   width="255.99998"
   height="256.00003"
   viewBox="0 0 67.73333 67.733341"
   version="1.1"
   id="svg1093"
   inkscape:version="1.2.2 (732a01da63, 2022-12-09)"
   sodipodi:docname="logo.svg"
   xmlns:inkscape="http://www.inkscape.org/namespaces/inkscape"
   xmlns:sodipodi="http://sodipodi.sourceforge.net/DTD/sodipodi-0.dtd"
   xmlns="http://www.w3.org/2000/svg"
   xmlns:svg="http://www.w3.org/2000/svg">
  <sodipodi:namedview
     id="namedview1095"
     pagecolor="#ffffff"
     bordercolor="#000000"
     borderopacity="0.25"
     inkscape:showpageshadow="2"
     inkscape:pageopacity="0.0"
     inkscape:pagecheckerboard="0"
     inkscape:deskcolor="#d1d1d1"
     inkscape:document-units="mm"
     showgrid="false"
     inkscape:zoom="2.1341967"
     inkscape:cx="172.19594"
     inkscape:cy="112.92305"
     inkscape:window-width="1920"
     inkscape:window-height="1027"
     inkscape:window-x="-8"
     inkscape:window-y="-8"
     inkscape:window-maximized="1"
     inkscape:current-layer="layer1" />
  <defs
     id="defs1090" />
  <g
     inkscape:label="Layer 1"
     inkscape:groupmode="layer"
     id="layer1"
     transform="translate(-40.525972,-58.75974)">
    <rect
       style="fill:none;fill-opacity:0.996951;stroke:#000000;stroke-width:0.999993"
       id="rect1237"
       width="66.73333"
       height="62.500008"
       x="41.02597"
       y="63.493076"
       rx="4.909091"
       ry="4.909091" />
    <g
       id="g1433"
       transform="translate(0,-2.042208)"
       style="stroke-width:1;stroke-dasharray:none;paint-order:fill markers stroke">
      <g
         id="g1333"
         transform="translate(1.2727522,-1.4394535)"
         style="stroke-width:1;stroke-dasharray:none;paint-order:fill markers stroke">
        <circle
           style="fill:none;fill-opacity:0.996951;stroke:#000000;stroke-width:1;stroke-dasharray:none;paint-order:fill markers stroke"
           id="path1291"
           cx="54.694313"
           cy="73.42836"
           r="4.2624998" />
        <circle
           style="fill:none;fill-opacity:0.996951;stroke:#000000;stroke-width:1;stroke-dasharray:none;paint-order:fill markers stroke"
           id="path1291-5"
           cx="73.119888"
           cy="73.42836"
           r="4.2624998" />
        <circle
           style="fill:none;fill-opacity:0.996951;stroke:#000000;stroke-width:1;stroke-dasharray:none;paint-order:fill markers stroke"
           id="path1291-0"
           cx="91.545456"
           cy="73.42836"
           r="4.2624998" />
      </g>
      <path
         style="fill:none;fill-opacity:0.996951;stroke:#000000;stroke-width:1;stroke-linecap:round;stroke-dasharray:none;paint-order:fill markers stroke"
         d="m 55.967065,71.988906 c 0,-10.686958 0,-10.686958 0,-10.686958"
         id="path1389" />
      <path
         style="fill:none;fill-opacity:0.996951;stroke:#000000;stroke-width:1;stroke-linecap:round;stroke-dasharray:none;paint-order:fill markers stroke"
         d="m 74.392641,71.988906 c 0,-10.686958 0,-10.686958 0,-10.686958"
         id="path1389-2" />
      <path
         style="fill:none;fill-opacity:0.996951;stroke:#000000;stroke-width:1;stroke-linecap:round;stroke-dasharray:none;paint-order:fill markers stroke"
         d="m 92.818208,71.988906 c 0,-10.686958 0,-10.686958 0,-10.686958"
         id="path1389-0" />
    </g>
    <g
       id="g2094"
       transform="matrix(1.2149788,0,0,1.2209258,-15.384649,-23.854217)"
       style="stroke-width:0.821053">
      <path
         style="fill:none;fill-opacity:0.996951;stroke:#000000;stroke-width:0.868156;stroke-linecap:round;stroke-dasharray:none;paint-order:fill markers stroke"
         id="path2040"
         transform="matrix(1,0,-0.4472136,0.89442719,0,0)"
         sodipodi:type="arc"
         sodipodi:cx="114.82298"
         sodipodi:cy="117.75999"
         sodipodi:rx="4.2252455"
         sodipodi:ry="4.723969"
         sodipodi:start="0"
         sodipodi:end="5.7595865"
         sodipodi:arc-type="arc"
         d="m 119.04823,117.75999 a 4.2252455,4.723969 0 0 1 -3.67374,4.68355 4.2252455,4.723969 0 0 1 -4.63278,-3.4609 4.2252455,4.723969 0 0 1 2.46434,-5.58703 4.2252455,4.723969 0 0 1 5.2761,2.00239"
         sodipodi:open="true" />
      <path
         style="fill:none;fill-opacity:0.996951;stroke:#000000;stroke-width:0.868156;stroke-linecap:round;stroke-dasharray:none;paint-order:fill markers stroke"
         id="path2040-5"
         transform="matrix(1,0,-0.4472136,0.89442719,0,0)"
         sodipodi:type="arc"
         sodipodi:cx="139.44104"
         sodipodi:cy="117.75999"
         sodipodi:rx="4.2252455"
         sodipodi:ry="4.723969"
         sodipodi:start="0"
         sodipodi:end="5.4977871"
         sodipodi:arc-type="arc"
         d="m 143.66629,117.75999 a 4.2252455,4.723969 0 0 1 -3.40095,4.6332 4.2252455,4.723969 0 0 1 -4.72792,-2.82542 4.2252455,4.723969 0 0 1 1.5562,-5.73562 4.2252455,4.723969 0 0 1 5.33512,0.58749"
         sodipodi:open="true" />
      <path
         style="fill:none;fill-opacity:0.996951;stroke:#000000;stroke-width:0.821053;stroke-linecap:round;stroke-dasharray:none;paint-order:fill markers stroke"
         d="m 91.002414,105.32774 h 4.788953 c 1.514387,0 1.877845,-0.12115 2.423025,-1.75669 0.545181,-1.63554 -0.414738,-3.937417 -1.998996,-5.451808 -1.584257,-1.514391 -10.055557,-3.028783 -10.055557,-3.028783 0,0 -1.998997,-3.997992 -5.875838,-5.451808 -3.876842,-1.453816 -11.933404,-0.363454 -15.446792,1.029786 -3.513387,1.39324 -6.142377,2.559464 -9.631527,4.422022 h -4.240295 c 0,0 0.969209,0.675169 1.393238,1.756695 0.42403,1.081525 -2.180722,1.93842 -2.786479,2.786479 -0.605757,0.848057 0.726906,5.694107 2.180723,5.694107 h 6.180992"
         id="path2086"
         sodipodi:nodetypes="cssscssccsssc" />
      <path
         style="fill:none;fill-opacity:0.996951;stroke:#000000;stroke-width:0.821053;stroke-linecap:round;stroke-dasharray:none;paint-order:fill markers stroke"
         d="M 66.384352,105.32774 H 82.551923"
         id="path2088" />
    </g>
  </g>
</svg>
